Coordinates
version=1
nRows=9
nColumns=63
inDegrees=yes

Units are S.I. units (second, meters, Newtons, ...)
If the header above contains a line with 'inDegrees', this indicates whether rotational values are in degrees (yes) or radians (no).

endheader
time	pelvis_tilt	pelvis_list	pelvis_rotation	pelvis_tx	pelvis_ty	pelvis_tz	hip_flexion_r	hip_adduction_r	hip_rotation_r	knee_angle_r	knee_angle_r_beta	ankle_angle_r	subtalar_angle_r	mtp_angle_r	hip_flexion_l	hip_adduction_l	hip_rotation_l	knee_angle_l	knee_angle_l_beta	ankle_angle_l	subtalar_angle_l	mtp_angle_l	L5_S1_Flex_Ext	L5_S1_Lat_Bending	L5_S1_axial_rotation	L4_L5_Flex_Ext	L4_L5_Lat_Bending	L4_L5_axial_rotation	L3_L4_Flex_Ext	L3_L4_Lat_Bending	L3_L4_axial_rotation	L2_L3_Flex_Ext	L2_L3_Lat_Bending	L2_L3_axial_rotation	L1_L2_Flex_Ext	L1_L2_Lat_Bending	L1_L2_axial_rotation	L1_T12_Flex_Ext	L1_T12_Lat_Bending	L1_T12_axial_rotation	Abs_r3	Abs_r2	Abs_r1	Abs_t1	Abs_t2	neck_flexion	neck_bending	neck_rotation	arm_flex_r	arm_add_r	arm_rot_r	elbow_flex_r	pro_sup_r	wrist_flex_r	wrist_dev_r	arm_flex_l	arm_add_l	arm_rot_l	elbow_flex_l	pro_sup_l	wrist_flex_l	wrist_dev_l
      7.15000000	      0.12451712	     -4.88574001	     84.58559932	      0.19485539	      0.89207829	      0.62624743	      2.80671417	     -0.92442240	     -6.84709874	      9.57837747	      0.16717422	     29.76763844	     16.73143452	      0.00000000	      1.71740962	      0.38397381	     10.52212883	      7.75406049	      0.13533389	     21.93909518	    -14.71568671	      0.00000000	     -0.08633145	      0.30979175	      0.23383610	     -0.16032614	      0.41202303	      0.24845086	     -0.14183394	      0.75322767	      0.24845086	     -0.09866822	      0.75322767	      0.20460659	     -0.08016739	      0.63172734	      0.18999183	     -0.04932979	      0.47986743	      0.17537708	     -0.61665692	      3.50442627	      1.30052626	      0.00000000	      0.00000000	     26.14163496	     -3.74000494	      0.01332696	      6.50064270	    -12.00208229	    116.36865940	      9.20525326	      4.22928312	     -4.02064017	    -14.98996664	      9.08136948	     -7.99854090	    124.55393210	      9.59466909	      4.18232795	     -5.18360538	    -11.56866578
      7.16666667	      0.02473463	     -4.81418641	     84.57699314	      0.19465758	      0.89190606	      0.62645358	      2.59523535	     -1.03969572	     -6.94053075	      9.39091726	      0.16390243	     29.65081812	     16.63037784	      0.00000000	      1.69605104	      0.51528959	     10.52366339	      7.78934185	      0.13594966	     22.27797215	    -14.71508667	      0.00000000	     -0.09788514	      0.30507044	      0.23079398	     -0.18178249	      0.40574369	      0.24521861	     -0.16081550	      0.74174828	      0.24521861	     -0.11187293	      0.74174828	      0.20194473	     -0.09089614	      0.62209965	      0.18752011	     -0.05593157	      0.47255412	      0.17309549	     -0.69918376	      3.45101788	      1.28360689	      0.00000000	      0.00000000	     26.04113575	     -3.75624171	      0.03072190	      6.54053056	    -12.00715987	    116.58036349	      9.17351187	      4.10977810	     -4.06508039	    -14.94369983	      9.12369484	     -8.03551289	    124.01333585	      9.75235168	      4.52030226	     -5.29947410	    -11.56616581
      7.18333333	     -0.06861148	     -4.73257062	     84.51339325	      0.19450635	      0.89175443	      0.62663081	      2.35290551	     -1.14128678	     -6.95658106	      9.12740809	      0.15930332	     29.53090824	     16.56666017	      0.00000000	      1.66426036	      0.62669864	     10.17406005	      7.81009471	      0.13631187	     22.87245900	    -14.28058835	      0.00000000	     -0.10556371	      0.30150156	      0.23873732	     -0.19604236	      0.40099707	      0.25365840	     -0.17343062	      0.73307088	      0.25365840	     -0.12064876	      0.73307088	      0.20889516	     -0.09802646	      0.61482197	      0.19397407	     -0.06031910	      0.46702591	      0.17905299	     -0.75403101	      3.41064591	      1.32778536	      0.00000000	      0.00000000	     25.89643998	     -3.63999682	      0.17184581	      6.53785381	    -12.02137893	    116.60579298	      9.11981098	      4.17613005	     -4.10645907	    -14.94868915	      9.16400863	     -8.01064958	    124.30869619	      9.78430980	      4.38859874	     -5.37468243	    -11.64781090
      7.20000000	     -0.17382167	     -4.65085351	     84.50877376	      0.19422251	      0.89160365	      0.62675947	      2.11659450	     -1.24933169	     -6.88635802	      8.87258139	      0.15485576	     29.46189827	     16.37494026	      0.00000000	      1.64251096	      0.76441185	     10.02835880	      7.83926828	      0.13682104	     23.43308515	    -14.09701913	      0.00000000	     -0.10928622	      0.29709481	      0.23063259	     -0.20295544	      0.39513610	      0.24504712	     -0.17954633	      0.72235633	      0.24504712	     -0.12490322	      0.72235633	      0.20180351	     -0.10148318	      0.60583575	      0.18738898	     -0.06244615	      0.46019987	      0.17297444	     -0.78062053	      3.36079596	      1.28270925	      0.00000000	      0.00000000	     25.69541181	     -3.43183791	      0.46260286	      6.56614582	    -12.05558932	    116.68296487	      9.13687058	      4.10278745	     -4.13204463	    -14.94687168	      9.17181771	     -8.03318522	    123.90062251	      9.93869226	      4.78452187	     -5.50041121	    -11.60071633
      7.21666667	     -0.27008848	     -4.59401861	     84.47369381	      0.19426137	      0.89148941	      0.62684820	      1.88162234	     -1.31822101	     -6.74793769	      8.53423451	      0.14895049	     29.30358802	     16.21566452	      0.00000000	      1.66048048	      0.83479375	      9.20737608	      7.91689329	      0.13817585	     24.17364232	    -13.00173706	      0.00000000	     -0.11075437	      0.29006428	      0.23275669	     -0.20568193	      0.38578550	      0.24730398	     -0.18195835	      0.70526230	      0.24730398	     -0.12658116	      0.70526230	      0.20366210	     -0.10284650	      0.59149909	      0.18911481	     -0.06328504	      0.44930958	      0.17456751	     -0.79110735	      3.28126520	      1.29452286	      0.00000000	      0.00000000	     25.54772482	     -3.06299720	      0.84300160	      6.56001362	    -12.01038274	    117.12427509	      9.01927522	      3.89775134	     -4.06325878	    -14.91918535	      9.16865628	     -8.07583032	    123.79783648	      9.99328931	      4.86810853	     -5.47877530	    -11.66590802
      7.23333333	     -0.34244698	     -4.55108559	     84.45246911	      0.19424452	      0.89138604	      0.62680840	      1.66778529	     -1.36313107	     -6.54759611	      8.20337780	      0.14317595	     29.18135148	     16.05243437	      0.00000000	      1.60387845	      0.92376767	      9.26838681	      7.85754551	      0.13714004	     24.43530013	    -13.15754045	      0.00000000	     -0.11090672	      0.28625975	      0.23161086	     -0.20596488	      0.38072547	      0.24608654	     -0.18220866	      0.69601196	      0.24608654	     -0.12675529	      0.69601196	      0.20265950	     -0.10298798	      0.58374088	      0.18818383	     -0.06337210	      0.44341635	      0.17370815	     -0.79219563	      3.23822754	      1.28815013	      0.00000000	      0.00000000	     25.41050175	     -2.67532330	      1.26352887	      6.55155417	    -12.03885350	    116.63566903	      9.11412984	      4.20552192	     -4.20573212	    -14.79447775	      9.17703554	     -8.04783296	    124.42574250	      9.96917627	      4.63686933	     -5.55486037	    -11.71331871
      7.25000000	     -0.38463734	     -4.53459512	     84.46856212	      0.19434902	      0.89130339	      0.62679899	      1.44386931	     -1.35212505	     -6.38046034	      7.78055174	      0.13579625	     28.94752428	     15.90715061	      0.00000000	      1.69001681	      0.85488580	      7.58940160	      8.04776581	      0.14046001	     25.38355296	    -10.64087559	      0.00000000	     -0.11382708	      0.28287160	      0.23048999	     -0.21138828	      0.37621923	      0.24489561	     -0.18700651	      0.68777401	      0.24489561	     -0.13009297	      0.68777401	      0.20167874	     -0.10569983	      0.57683176	      0.18727312	     -0.06504080	      0.43816811	      0.17286749	     -0.81305547	      3.19990010	      1.28191618	      0.00000000	      0.00000000	     25.44602514	     -2.36186312	      1.45305782	      6.48557948	    -12.16450851	    114.38205072	      9.45627936	      5.61265387	     -4.36229565	    -14.79800005	      9.17128568	     -8.25818572	    122.29399751	     10.47396756	      6.25432219	     -6.02669341	    -11.72523909
      7.26666667	     -0.51144532	     -4.54677024	     84.34319195	      0.19465460	      0.89118253	      0.62650474	      1.32919991	     -1.43239952	     -5.92303426	      7.52806065	      0.13138944	     28.83359378	     15.52790826	      0.00000000	      1.56845406	      1.06205592	      9.05031030	      7.80594014	      0.13623936	     24.79605476	    -12.90751528	      0.00000000	     -0.11111557	      0.27024588	      0.23801363	     -0.20635272	      0.35942702	      0.25288948	     -0.18255177	      0.65707583	      0.25288948	     -0.12699398	      0.65707583	      0.20826193	     -0.10318192	      0.55108539	      0.19338607	     -0.06349144	      0.41861086	      0.17851022	     -0.79368740	      3.05707541	      1.32376040	      0.00000000	      0.00000000	     25.35850266	     -1.91150847	      1.81344969	      6.57461166	    -11.97291475	    116.38988403	      9.09838361	      4.20918130	     -3.90382170	    -14.45770213	      9.12588772	     -8.11905272	    124.38508960	      9.97508096	      4.76560435	     -5.51892552	    -11.78614646
      7.28333333	     -0.61368483	     -4.56709537	     84.31474051	      0.19489090	      0.89106108	      0.62637516	      1.19367778	     -1.48614523	     -5.62642137	      7.21202150	      0.12587352	     28.64909730	     15.25983503	      0.00000000	      1.56772645	      1.13565358	      8.93202219	      7.75786474	      0.13540028	     24.86401315	    -12.66381630	      0.00000000	     -0.11646563	      0.25670916	      0.24470800	     -0.21628832	      0.34142318	      0.26000225	     -0.19134138	      0.62416266	      0.26000225	     -0.13310857	      0.62416266	      0.21411950	     -0.10814998	      0.52348132	      0.19882525	     -0.06654846	      0.39764249	      0.18353100	     -0.83190235	      2.90394538	      1.36099250	      0.00000000	      0.00000000	     25.35183133	     -1.56774488	      1.69003966	      6.59895033	    -11.91217729	    116.33842641	      9.07263916	      4.22772603	     -3.66768718	    -14.29163223	      9.13501934	     -8.20419604	    124.20603562	     10.00625236	      4.61632666	     -5.41029103	    -11.90478875
